<?xml version="1.0" encoding="utf-8"?>
<!-- Generator: Adobe Illustrator 18.1.1, SVG Export Plug-In . SVG Version: 6.00 Build 0)  -->
<svg version="1.1" id="Layer_1" xmlns="http://www.w3.org/2000/svg" xmlns:xlink="http://www.w3.org/1999/xlink" x="0px" y="0px"
	 viewBox="0 0 302.8 373.2" enable-background="new 0 0 302.8 373.2" xml:space="preserve">
<g>
	
		<rect x="232.6" y="96.8" transform="matrix(-0.7071 0.7071 -0.7071 -0.7071 530.2409 27.5694)" fill="#6C909F" width="53.7" height="53.7"/>
	
		<rect x="189.7" y="53.9" transform="matrix(-0.7071 0.7071 -0.7071 -0.7071 426.8739 -15.2478)" fill="#4F5C6C" width="53.7" height="53.7"/>
	
		<rect x="146.9" y="11.1" transform="matrix(-0.7071 0.7071 -0.7071 -0.7071 323.5071 -58.0683)" fill="#6C909F" width="53.7" height="53.7"/>
	
		<rect x="40.5" y="79.4" transform="matrix(0.7071 0.7071 -0.7071 0.7071 154.0603 -41.9526)" fill="#6C909F" width="174.4" height="171.2"/>
	<g>
		
			<rect x="99.5" y="310.5" transform="matrix(0.7071 0.7071 -0.7071 0.7071 274.6596 9.8202)" fill="#232633" stroke="#4F5C6C" stroke-width="2" stroke-miterlimit="10" width="51.9" height="51.9"/>
		<path fill-rule="evenodd" clip-rule="evenodd" fill="#4F5C6C" d="M159.6,333.2c-2.8-2.2-6.1,0.8-9.5-1.5c-0.2-0.1-2.6-2.2-3.6-4.2
			c-0.4-0.7-0.7-1.5-1.1-2.2c-0.6-1-1.6-1.3-2.7-1c-1,0.3-1.7,1.2-1.7,2.2c0,1.1,0.5,2,1.5,2.4c0.7,0.2,1.2,0.5,1.6,1.1
			c0.8,1.1,1.6,2.2,2.9,2.9c-1,0-1.8-0.5-2.7-0.8c-2.1-0.8-4.1-1.7-5.9-3.2c-0.9-0.8-2.2-0.7-3.2,0c-0.9,0.7-1.4,1.8-1.1,3
			c0.3,1.1,1.3,2,2.5,2c1.4,0,2.7,0.1,3.9,0.7c0.6,0.3,1.4,0.2,1.5,1.2c0,0.3,0.4,0.2,0.6,0.2c0.5,0,1,0,1.6-0.1c0,0.1,0,0.1,0,0.2
			c-2.4,0.8-4.9,1.5-7.4,2c-0.4,0.1-0.8-0.1-1.2-0.2c-1.7-0.7-3.3-0.2-4.1,1.4c-0.7,1.4-0.3,3.2,1,4c1.4,0.9,3.2,0.6,4.3-0.8
			c0.1-0.1,0.2-0.3,0.3-0.4c1.2-1.1,5.7-1.8,7.1-1.1c0.7,0.3,0.9,0.8,0.6,1.5c-0.4,1-1,1.6-1.9,2.1c-1.3,0.8-1.7,2.3-1.1,3.6
			c0.7,1.3,2.2,1.9,3.6,1.3c0.9-0.4,1.3-1.1,1.6-2c0.4-1.3,0.8-2.7,1.3-3.9c0.9-2.4,2.8-3.7,5.4-3.8c1.9,0,2.4,0.1,4.6-0.1
			c1.7-0.2,2.5-0.3,3-0.8C162,337.5,161.3,334.6,159.6,333.2z"/>
		<path fill-rule="evenodd" clip-rule="evenodd" fill="#4F5C6C" d="M128.6,302.7c2.3,3.8-0.3,6.7,1.8,9.6c1.1,1.5,2.6,2.3,4.3,2.9
			c0.7,0.3,1.5,0.5,2.2,0.8c1,0.4,1.4,1.4,1.2,2.4c-0.2,1-0.9,1.7-1.9,1.9c-1,0.2-1.9-0.2-2.4-1.2c-0.3-0.6-0.6-1.1-1.2-1.4
			c-1.1-0.6-2.2-1.3-3-2.4c0.1,0.9,0.6,1.7,1.1,2.4c1,1.9,2.1,3.7,3.6,5.2c0.8,0.8,0.9,2,0.4,3c-0.5,1-1.6,1.5-2.7,1.3
			c-1.1-0.2-2-1-2.1-2.1c-0.2-1.3-0.4-2.5-1.1-3.6c-0.3-0.5-0.4-1.3-1.2-1.2c-0.3,0-0.2-0.3-0.2-0.5c0-0.5-0.1-1-0.1-1.5
			c-0.1,0-0.1,0-0.2,0.1c-0.5,2.4-0.8,4.8-1.1,7.2c0,0.4,0.1,0.7,0.3,1.1c0.9,1.5,0.5,3.1-0.8,4c-1.3,0.9-2.9,0.6-3.9-0.5
			c-1-1.2-0.9-2.9,0.3-4.1c0.1-0.1,0.3-0.2,0.4-0.4c0.9-1.2,1-5.5,0.3-6.7c-0.4-0.6-0.8-0.8-1.5-0.4c-0.9,0.4-1.4,1.2-1.8,2
			c-0.6,1.3-1.9,1.9-3.2,1.4c-1.3-0.5-2-1.9-1.6-3.3c0.3-0.9,0.9-1.4,1.7-1.7c1.2-0.5,2.4-1,3.5-1.6c2.2-1.2,3.2-3,2.9-5.5
			c-0.2-2-0.5-2.3-0.4-4.3c0-1,0-1.8,0.5-2.8c0.1-0.2,1.1-2.4,2.8-2.5C127.1,300.3,128.3,302.2,128.6,302.7z"/>
		<path fill-rule="evenodd" clip-rule="evenodd" fill="#4F5C6C" d="M90.8,339.8c1.9,2.7,6.6-0.5,10.4,2.3c0.1,0.1,2.6,2.4,3.5,4.7
			c0.3,0.8,0.6,1.6,1,2.4c0.6,1.1,1.6,1.5,2.8,1.3c1.1-0.2,1.9-1.1,2-2.2c0.1-1.2-0.4-2.1-1.5-2.6c-0.7-0.3-1.3-0.6-1.7-1.3
			c-0.8-1.2-1.5-2.4-2.9-3.2c1.1,0.1,1.9,0.6,2.8,1c2.1,1,4.2,2.1,6,3.7c0.9,0.9,2.3,0.9,3.4,0.2c1-0.6,1.6-1.8,1.3-3.1
			c-0.2-1.2-1.2-2.2-2.5-2.2c-1.4-0.1-2.8-0.3-4.1-1.1c-0.6-0.3-1.4-0.3-1.5-1.3c0-0.3-0.4-0.2-0.6-0.2c-0.5,0-1.1,0-1.6,0
			c0-0.1,0-0.1,0-0.2c2.6-0.7,5.3-1.2,8-1.6c0.5-0.1,0.8,0.1,1.2,0.3c1.7,0.9,3.5,0.4,4.4-1.2c0.9-1.5,0.5-3.3-0.8-4.3
			c-1.5-1.1-3.3-0.8-4.6,0.6c-0.1,0.1-0.2,0.3-0.4,0.5c-1.3,1.1-6.1,1.5-7.6,0.7c-0.7-0.4-0.9-0.9-0.6-1.7c0.5-1,1.2-1.6,2.2-2.1
			c1.5-0.7,2-2.3,1.4-3.7c-0.7-1.5-2.2-2.1-3.7-1.6c-1,0.4-1.5,1.1-1.8,2c-0.5,1.4-1,2.8-1.6,4.1c-1.2,2.5-3.2,3.7-6,3.6
			c-1.7-0.1-2.2-0.2-4.9-0.2c-1.3,0-1.8,0.1-2.3,0.5c-0.8,0.7-0.8,1.9-0.8,2.7C90,336.9,90,338.6,90.8,339.8z"/>
		<path fill-rule="evenodd" clip-rule="evenodd" fill="#4F5C6C" d="M128.8,371.2c2.6-2.4-0.7-6.8,2-10.3c1.2-1.6,2.8-2.5,4.6-3.1
			c0.8-0.3,1.6-0.5,2.3-0.9c1.1-0.5,1.5-1.5,1.3-2.6c-0.2-1-1-1.9-2-2c-1.1-0.2-2.1,0.2-2.6,1.3c-0.3,0.6-0.7,1.2-1.3,1.5
			c-1.2,0.7-2.4,1.3-3.2,2.6c0.1-1,0.7-1.8,1.1-2.6c1.1-2,2.2-3.9,3.9-5.6c0.9-0.9,1-2.1,0.4-3.3c-0.5-1-1.7-1.6-2.9-1.4
			c-1.1,0.2-2.1,1-2.3,2.2c-0.2,1.4-0.4,2.7-1.2,3.9c-0.3,0.5-0.4,1.4-1.3,1.3c-0.3,0-0.2,0.3-0.2,0.6c0,0.5-0.1,1-0.1,1.6
			c-0.1,0-0.1,0-0.2-0.1c-0.6-2.6-0.9-5.1-1.2-7.7c0-0.4,0.1-0.8,0.4-1.2c0.9-1.6,0.6-3.3-0.9-4.3c-1.4-0.9-3.2-0.7-4.2,0.6
			c-1.1,1.3-1,3.1,0.3,4.4c0.1,0.1,0.3,0.2,0.4,0.4c0.9,1.3,1.1,5.9,0.3,7.3c-0.4,0.7-0.9,0.8-1.6,0.5c-0.9-0.5-1.5-1.2-1.9-2.2
			c-0.6-1.4-2.1-2-3.5-1.5c-1.4,0.5-2.2,2-1.7,3.5c0.3,0.9,1,1.5,1.9,1.8c1.3,0.6,2.6,1.1,3.8,1.8c2.4,1.2,3.4,3.2,3.1,5.9
			c-0.1,0.5-0.2,1.9-0.5,4.6c0,0.4-0.2,1.4,0.1,2.5c0.1,0.4,0.2,0.6,0.3,0.8C123.2,372.7,127,372.9,128.8,371.2z"/>
	</g>
	
		<rect x="55.9" y="265.9" transform="matrix(0.7071 0.7071 -0.7071 0.7071 231.2213 27.1979)" fill="#6C909F" width="53.7" height="53.7"/>
</g>
</svg>
